<?xml version="1.0"?>
<svg xmlns="http://www.w3.org/2000/svg" xmlns:xlink="http://www.w3.org/1999/xlink" version="1.1" id="Capa_1" x="0px" y="0px" viewBox="0 0 361.984 361.984" style="enable-background:new 0 0 361.984 361.984;" xml:space="preserve" width="512px" height="512px" class=""><g><path d="M0,355.952h361.984V6.032H0V355.952z M29.467,335.952l10.179-10.179l10.178,10.179H29.467z M29.332,308.389l10.312-10.311  l10.314,10.314l-10.311,10.311L29.332,308.389z M49.992,329.049l-6.812-6.811l6.812-6.811V329.049z M49.992,301.357l-6.814-6.814  l6.814-6.814V301.357z M49.992,280.658l-10.349,10.349l-12.668-12.667l9.743-9.744h13.274V280.658z M49.992,263.391H36.718  l-9.742-9.743l12.669-12.669l10.347,10.347V263.391z M124.645,63.907l-10.313-10.313l10.313-10.312l10.313,10.313L124.645,63.907z   M138.492,57.13l0.659,0.659c-3.711,3.078-7.253,6.486-10.397,10.227l-0.574-0.574L138.492,57.13z M125.66,71.993  c-3.694,5.159-6.576,10.886-8.155,17.186l-5.53-5.531l12.67-12.67L125.66,71.993z M121.109,67.442L108.44,80.112l-9.947-9.95V56.096  h11.269L121.109,67.442z M116.433,95.178c-0.072,0.663-0.13,1.332-0.172,2.007l-17.813,17.816c-0.949,0.686-1.85,1.422-2.719,2.19  L74.635,96.096l21.358-21.363L116.433,95.178z M116.693,108.298c-1.464,0.119-2.913,0.332-4.343,0.622l-0.376-0.376l4.324-4.325  C116.388,105.582,116.519,106.943,116.693,108.298z M70.064,98.596l9.945,9.947l-12.669,12.669l-11.348-11.348V98.596H70.064z   M55.993,93.596V82.325L67.34,70.978l12.67,12.67l-9.946,9.948H55.993z M77.653,138.594L67.34,148.907l-10.313-10.313l10.313-10.313  L77.653,138.594z M63.806,124.746L53.492,135.06L43.18,124.747l10.314-10.313L63.806,124.746z M63.805,152.442l-10.311,10.311  l-10.313-10.312l10.312-10.311L63.805,152.442z M55.993,183.596h6.289c-0.738,7.442,0.809,15.044,4.375,21.931l-10.664-10.664  V183.596z M65.688,171.452c-1.12,2.319-1.962,4.712-2.554,7.144h-7.141v-11.271l11.347-11.347l5.494,5.494  C69.917,164.35,67.5,167.702,65.688,171.452z M70.875,152.443l11.347-11.347h1.047c-0.578,4.226-0.551,8.62,0.173,13.044  c-2.438,1.135-4.715,2.496-6.808,4.062L70.875,152.443z M82.226,136.096l-11.35-11.35l12.668-12.668l8.666,8.667  c-3.748,4.38-6.452,9.633-7.96,15.351H82.226z M93.493,70.162l-9.948,9.95l-12.67-12.67l11.347-11.347h11.271V70.162z M67.34,63.907  L57.027,53.595l10.313-10.313l10.312,10.313L67.34,63.907z M63.805,67.442L53.493,77.753L43.181,67.441L53.492,57.13L63.805,67.442z   M39.645,63.907L29.332,53.594l10.313-10.312l10.313,10.313L39.645,63.907z M50.993,82.325v11.271h-14.07l-9.948-9.949  l12.669-12.669L50.993,82.325z M50.993,98.596v11.267l-11.35,11.349l-12.668-12.668l9.948-9.949H50.993z M39.644,128.282  l10.313,10.313l-10.312,10.312l-10.313-10.313L39.644,128.282z M50.993,167.325v11.271h-14.07l-9.948-9.949l12.67-12.67  L50.993,167.325z M50.993,183.596v11.267l-11.35,11.349l-12.668-12.668l9.948-9.949H50.993z M49.957,223.597l-10.311,10.311  l-10.314-10.314l10.312-10.311L49.957,223.597z M49.992,244.254l-6.812-6.811l6.812-6.812V244.254z M43.179,209.748l10.315-10.314  l10.313,10.313l-10.314,10.314L43.179,209.748z M67.342,213.282l6.826,6.826H60.516L67.342,213.282z M299.992,335.702h-238V232.108  h28.497v-18.383l-2.574-1.791c-12.339-8.584-17.143-23.416-11.421-35.264c3.011-6.232,8.588-10.874,15.702-13.068l5.64-1.74  l-1.647-5.668c-3.832-13.186,0.773-26.647,11.2-32.734c3.733-2.18,7.876-3.285,12.314-3.285c1.149,0,2.32,0.077,3.482,0.229  l8.773,1.149l-2.178-8.576c-1.074-4.229-1.619-8.591-1.619-12.964c0-30.385,42.889-48.472,52.55-52.159  c9.667,3.689,52.545,21.776,52.545,52.159c0,4.301-0.525,8.59-1.562,12.746l-1.946,7.803l8.034-0.358  c4.846-0.213,9.446,0.886,13.503,3.254c10.34,6.039,14.921,18.919,11.398,32.05l-1.636,6.098l6.173,1.324  c8.248,1.769,14.906,6.776,18.269,13.737c5.722,11.85,0.919,26.681-11.42,35.266l-2.574,1.791v18.383h28.497V335.702z   M142.027,53.595l10.313-10.313l3.231,3.231c-4.062,2.333-8.314,5.052-12.465,8.161L142.027,53.595z M206.207,46.718l3.437-3.437  l10.313,10.313l-1.322,1.322C214.506,51.798,210.266,49.066,206.207,46.718z M322.341,298.078l10.312,10.311l-10.314,10.314  l-10.311-10.311L322.341,298.078z M311.992,301.357v-13.628l6.814,6.813L311.992,301.357z M311.992,280.658v-12.062h13.274  l9.743,9.744l-12.667,12.667L311.992,280.658z M311.992,263.391v-12.064l10.348-10.348l12.669,12.668l-9.743,9.744H311.992z   M311.992,244.255v-13.624l6.811,6.812L311.992,244.255z M322.339,233.908l-10.311-10.311l10.314-10.314l10.312,10.311  L322.339,233.908z M310.992,194.863v-11.267h14.069l9.948,9.949l-12.667,12.668L310.992,194.863z M299.702,183.596h6.29v11.267  l-10.666,10.665C298.893,198.641,300.44,191.038,299.702,183.596z M298.85,178.596c-0.592-2.432-1.434-4.825-2.554-7.145  c-1.807-3.74-4.231-7.093-7.153-9.971l5.502-5.502l11.348,11.347v11.271H298.85z M298.179,124.747l10.313-10.313l10.313,10.313  l-10.313,10.313L298.179,124.747z M304.957,138.595l-10.312,10.312l-10.313-10.313l10.313-10.312L304.957,138.595z M305.992,93.596  H291.92l-9.946-9.948l12.67-12.67l11.348,11.347V93.596z M305.992,98.596v11.267l-11.35,11.349l-12.668-12.668l9.946-9.948H305.992z   M291.107,124.747l-11.349,11.349H274.5c-1.219-4.672-3.245-9.018-6.007-12.842v-1.227l9.946-9.948L291.107,124.747z   M275.492,141.096h4.27l11.347,11.347l-5.773,5.773c-2.965-2.22-6.288-4.033-9.893-5.364  C275.996,148.846,275.995,144.896,275.492,141.096z M298.18,152.442l10.312-10.312l10.312,10.312l-10.312,10.312L298.18,152.442z   M310.992,178.596v-11.271l11.348-11.347l12.669,12.669l-9.948,9.949H310.992z M322.339,148.907l-10.312-10.312l10.313-10.313  l10.313,10.312L322.339,148.907z M310.992,109.863V98.596h14.069l9.947,9.948l-12.668,12.668L310.992,109.863z M310.992,93.596  V82.325l11.348-11.347l12.669,12.669l-9.948,9.949H310.992z M322.339,63.907l-10.312-10.312l10.313-10.313l10.313,10.312  L322.339,63.907z M318.804,67.442l-10.312,10.312L298.18,67.442l10.312-10.312L318.804,67.442z M294.645,63.907l-10.313-10.313  l10.313-10.312l10.313,10.313L294.645,63.907z M291.109,67.442L278.44,80.112l-9.947-9.95V56.096h11.269L291.109,67.442z   M287.35,96.096l-21.356,21.36l-20.877-20.879c-0.022-0.297-0.047-0.593-0.075-0.888l20.952-20.957L287.35,96.096z M250.009,108.542  l-1.026,1.026c-1.41-0.397-2.845-0.719-4.301-0.946c0.22-1.641,0.369-3.291,0.462-4.945L250.009,108.542z M244.023,89.636  c-1.521-6.344-4.363-12.112-8.032-17.31l1.348-1.349l12.67,12.67L244.023,89.636z M263.493,70.162l-9.948,9.95l-12.67-12.67  l11.347-11.347h11.271V70.162z M237.34,63.907l-10.313-10.313l10.313-10.313l10.312,10.313L237.34,63.907z M233.805,67.442  l-0.885,0.884c-3.121-3.758-6.645-7.184-10.345-10.28l0.917-0.917L233.805,67.442z M287.817,220.108l6.826-6.826l6.826,6.826  H287.817z M298.178,209.748l10.314-10.313l10.314,10.313l-10.314,10.314L298.178,209.748z M311.992,315.427l6.811,6.811  l-6.811,6.812V315.427z M312.162,335.952l10.179-10.179l10.179,10.179H312.162z M341.984,331.467l-3.44,3.44l-12.669-12.669  l11.347-11.347h4.762V331.467z M341.984,305.891h-4.758l-11.349-11.349l12.667-12.668l3.44,3.44V305.891z M341.984,278.243  l-12.25-12.25l12.25-12.25V278.243z M341.984,246.672l-3.44,3.44l-12.669-12.669l11.347-11.347h4.762V246.672z M341.984,221.096  h-4.758l-11.349-11.349l12.667-12.668l3.44,3.44V221.096z M341.984,193.448l-12.352-12.353l12.352-12.352V193.448z M341.984,161.672  l-3.44,3.44l-12.669-12.669l11.347-11.347h4.762V161.672z M341.984,136.096h-4.758l-11.35-11.35l12.668-12.667l3.441,3.441V136.096z   M341.984,108.448l-12.352-12.353l12.352-12.354V108.448z M341.984,76.67l-3.44,3.441l-12.669-12.669l11.347-11.347h4.762V76.67z   M341.984,30.519v20.577h-4.758l-11.35-11.35l12.668-12.668L341.984,30.519z M332.52,26.032l-10.179,10.179l-10.179-10.179H332.52z   M318.805,39.747L308.492,50.06l-10.313-10.313l10.313-10.313L318.805,39.747z M304.823,26.032l-10.179,10.179l-10.179-10.179  H304.823z M291.108,39.746l-11.35,11.35h-11.265V37.027l9.947-9.95L291.108,39.746z M272.415,26.032l-6.422,6.424l-6.423-6.424  H272.415z M263.493,37.027v14.068h-11.267l-11.35-11.35l12.669-12.669L263.493,37.027z M247.52,26.032l-10.179,10.179  l-10.178-10.179H247.52z M233.806,39.746L223.492,50.06L213.18,39.747l10.314-10.313L233.806,39.746z M219.823,26.032  l-10.179,10.179l-10.179-10.179H219.823z M206.108,39.746l-4.452,4.452c-7.865-4.173-14.511-6.781-17.469-7.865l9.253-9.255  L206.108,39.746z M187.416,26.032l-6.423,6.424l-6.424-6.424H187.416z M177.647,36.183c-2.674,0.964-9.423,3.556-17.515,7.819  l-4.257-4.256l12.668-12.668L177.647,36.183z M162.52,26.032l-10.179,10.179l-10.179-10.179H162.52z M148.805,39.747L138.492,50.06  l-10.313-10.313l10.313-10.313L148.805,39.747z M134.823,26.032l-10.179,10.179l-10.179-10.179H134.823z M121.108,39.746  l-11.35,11.35H98.493V37.027l9.947-9.95L121.108,39.746z M102.415,26.032l-6.422,6.424l-6.423-6.424H102.415z M93.493,37.027v14.068  H82.226l-11.35-11.35l12.669-12.669L93.493,37.027z M77.52,26.032L67.341,36.211L57.163,26.032H77.52z M63.806,39.746L53.492,50.06  L43.18,39.747l10.314-10.313L63.806,39.746z M49.823,26.032L39.644,36.211L29.465,26.032H49.823z M20,30.52l3.441-3.441  l12.667,12.667l-11.35,11.35H20V30.52z M20,56.096h4.762l11.347,11.347L23.441,80.111L20,76.669V56.096z M20,83.741l12.353,12.354  L20,108.449V83.741z M20,115.52l3.44-3.44l12.667,12.667l-11.35,11.349H20V115.52z M20,141.096h4.762l11.347,11.347L23.44,165.111  l-3.44-3.44V141.096z M20,168.743l12.352,12.353L20,193.449V168.743z M20,200.52l3.44-3.44l12.667,12.667l-11.35,11.349H20V200.52z   M20,226.096h4.762l11.348,11.348l-12.669,12.669L20,246.671V226.096z M20,253.743l12.25,12.251L20,278.244V253.743z M20,285.315  l3.44-3.44l12.667,12.667l-11.35,11.349H20V285.315z M20,310.891h4.762l11.348,11.348l-12.669,12.669L20,331.466V310.891z" data-original="#000000" class="active-path" data-old_color="#F8FCFD" fill="#EEEEE8"/></g> </svg>
